<svg width="566" height="206" viewBox="0 0 566 206" fill="none" xmlns="http://www.w3.org/2000/svg">
<path d="M15.3826 113.151C15.3826 108.989 17.828 105.234 21.7525 103.848C32.5798 100.025 56.3527 93.0943 86.4148 93.0943C116.477 93.0943 140.25 100.025 151.077 103.848C155.002 105.234 157.447 108.989 157.447 113.151C157.447 120.584 149.897 125.871 142.746 123.841C129.412 120.055 108.51 115.395 86.4148 115.395C64.3201 115.395 43.4181 120.055 30.0835 123.841C22.9331 125.871 15.3826 120.584 15.3826 113.151Z" fill="#78C3FA"/>
<rect x="12" y="154.982" width="142.005" height="22.0353" rx="11.0177" transform="rotate(-60 12 154.982)" fill="#52A6F3"/>
<rect width="140.669" height="22.0353" rx="11.0177" transform="matrix(-0.5 -0.866025 -0.866025 0.5 161.811 153.823)" fill="#A2A1A8"/>
<path d="M15.3826 150.358C15.3826 146.196 17.828 142.441 21.7525 141.055C32.5798 137.232 56.3527 130.302 86.4148 130.302C116.477 130.302 140.25 137.232 151.077 141.055C155.002 142.441 157.447 146.196 157.447 150.358C157.447 157.791 149.897 163.078 142.746 161.048C129.412 157.263 108.51 152.602 86.4148 152.602C64.3201 152.602 43.4181 157.263 30.0835 161.048C22.9331 163.078 15.3826 157.791 15.3826 150.358Z" fill="#1769B4"/>
<path d="M137.595 156.458L113.111 114.051C110.069 108.782 111.874 102.044 117.144 99.0011C122.414 95.9587 129.152 97.7642 132.195 103.034L156.678 145.441C159.721 150.71 157.915 157.449 152.645 160.491C147.376 163.534 140.637 161.728 137.595 156.458Z" fill="#A2A1A8"/>
<path d="M77.201 41.5418L52.7173 83.9488C49.6749 89.2184 51.4804 95.9567 56.7501 98.9992C62.0197 102.042 68.758 100.236 71.8005 94.9664L96.2841 52.5594C99.3266 47.2898 97.5211 40.5515 92.2514 37.5091C86.9817 34.4666 80.2434 36.2721 77.201 41.5418Z" fill="#52A6F3"/>
<path d="M151.077 103.848C141.626 100.511 122.312 94.8062 97.5614 93.4097C91.4129 93.0628 86.4148 98.0865 86.4148 104.245C86.4148 110.403 91.4154 115.365 97.5601 115.773C115.405 116.956 131.681 120.699 142.746 123.841C149.897 125.871 157.447 120.584 157.447 113.151C157.447 108.989 155.002 105.234 151.077 103.848Z" fill="#A2CFF9"/>
<path d="M196.24 154.8C192.56 154.8 189.253 153.867 186.32 152C183.387 150.08 181.067 147.493 179.36 144.24C177.707 140.933 176.88 137.12 176.88 132.8C176.88 128.587 177.707 124.827 179.36 121.52C181.067 118.213 183.36 115.6 186.24 113.68C189.173 111.76 192.507 110.8 196.24 110.8C198.213 110.8 200.107 111.12 201.92 111.76C203.787 112.347 205.44 113.173 206.88 114.24C208.373 115.307 209.573 116.507 210.48 117.84C211.387 119.12 211.893 120.48 212 121.92L209.12 122.4V94.8H220.48V154H209.76L209.28 144.24L211.52 144.48C211.413 145.813 210.933 147.093 210.08 148.32C209.227 149.547 208.08 150.667 206.64 151.68C205.253 152.64 203.653 153.413 201.84 154C200.08 154.533 198.213 154.8 196.24 154.8ZM198.8 145.36C200.933 145.36 202.8 144.827 204.4 143.76C206 142.693 207.253 141.227 208.16 139.36C209.067 137.493 209.52 135.307 209.52 132.8C209.52 130.347 209.067 128.187 208.16 126.32C207.253 124.4 206 122.933 204.4 121.92C202.8 120.853 200.933 120.32 198.8 120.32C196.667 120.32 194.8 120.853 193.2 121.92C191.653 122.933 190.427 124.4 189.52 126.32C188.667 128.187 188.24 130.347 188.24 132.8C188.24 135.307 188.667 137.493 189.52 139.36C190.427 141.227 191.653 142.693 193.2 143.76C194.8 144.827 196.667 145.36 198.8 145.36ZM244.835 154L227.075 111.68H239.555L250.835 143.28L248.195 143.76L260.035 111.68H272.195L253.555 154H244.835ZM298.041 154.8C293.455 154.8 289.455 153.867 286.041 152C282.628 150.133 279.961 147.573 278.041 144.32C276.121 141.067 275.161 137.333 275.161 133.12C275.161 129.867 275.695 126.88 276.761 124.16C277.828 121.44 279.321 119.093 281.241 117.12C283.161 115.093 285.428 113.547 288.041 112.48C290.708 111.36 293.588 110.8 296.681 110.8C299.561 110.8 302.228 111.333 304.681 112.4C307.135 113.413 309.241 114.88 311.001 116.8C312.815 118.667 314.201 120.88 315.161 123.44C316.121 126 316.548 128.8 316.441 131.84L316.361 135.36H282.361L280.521 128.4H307.001L305.721 129.84V128.08C305.615 126.64 305.135 125.333 304.281 124.16C303.481 122.987 302.441 122.08 301.161 121.44C299.881 120.8 298.441 120.48 296.841 120.48C294.495 120.48 292.495 120.933 290.841 121.84C289.241 122.747 288.015 124.08 287.161 125.84C286.308 127.6 285.881 129.733 285.881 132.24C285.881 134.8 286.415 137.013 287.481 138.88C288.601 140.747 290.148 142.213 292.121 143.28C294.148 144.293 296.521 144.8 299.241 144.8C301.108 144.8 302.815 144.507 304.361 143.92C305.908 143.333 307.561 142.32 309.321 140.88L314.761 148.48C313.215 149.867 311.508 151.04 309.641 152C307.775 152.907 305.855 153.6 303.881 154.08C301.908 154.56 299.961 154.8 298.041 154.8ZM324.836 154V111.68H335.716L336.036 120.32L333.796 121.28C334.383 119.36 335.423 117.627 336.916 116.08C338.463 114.48 340.303 113.2 342.436 112.24C344.57 111.28 346.81 110.8 349.156 110.8C352.356 110.8 355.023 111.44 357.156 112.72C359.343 114 360.97 115.947 362.036 118.56C363.156 121.12 363.716 124.293 363.716 128.08V154H352.356V128.96C352.356 127.04 352.09 125.44 351.556 124.16C351.023 122.88 350.196 121.947 349.076 121.36C348.01 120.72 346.676 120.453 345.076 120.56C343.796 120.56 342.596 120.773 341.476 121.2C340.41 121.573 339.476 122.133 338.676 122.88C337.93 123.627 337.316 124.48 336.836 125.44C336.41 126.4 336.196 127.44 336.196 128.56V154H330.596C329.37 154 328.276 154 327.316 154C326.356 154 325.53 154 324.836 154ZM385.46 154V108.8H369.14V98H414.26V108.8H397.46V154H385.46ZM434.282 154.8C429.962 154.8 426.095 153.867 422.682 152C419.322 150.08 416.655 147.467 414.682 144.16C412.762 140.853 411.802 137.067 411.802 132.8C411.802 128.533 412.762 124.773 414.682 121.52C416.655 118.213 419.322 115.6 422.682 113.68C426.095 111.76 429.962 110.8 434.282 110.8C438.549 110.8 442.362 111.76 445.722 113.68C449.135 115.6 451.802 118.213 453.722 121.52C455.642 124.773 456.602 128.533 456.602 132.8C456.602 137.067 455.642 140.853 453.722 144.16C451.802 147.467 449.135 150.08 445.722 152C442.362 153.867 438.549 154.8 434.282 154.8ZM434.282 144.88C436.362 144.88 438.229 144.373 439.882 143.36C441.535 142.293 442.815 140.853 443.722 139.04C444.682 137.173 445.162 135.093 445.162 132.8C445.162 130.453 444.682 128.373 443.722 126.56C442.815 124.693 441.535 123.253 439.882 122.24C438.229 121.173 436.362 120.64 434.282 120.64C432.149 120.64 430.255 121.173 428.602 122.24C426.949 123.307 425.642 124.747 424.682 126.56C423.722 128.373 423.269 130.453 423.322 132.8C423.269 135.093 423.722 137.173 424.682 139.04C425.642 140.853 426.949 142.293 428.602 143.36C430.255 144.373 432.149 144.88 434.282 144.88ZM479.709 154.8C476.615 154.8 473.949 154.133 471.709 152.8C469.522 151.413 467.815 149.467 466.589 146.96C465.415 144.4 464.829 141.333 464.829 137.76V111.68H476.189V135.92C476.189 137.84 476.509 139.52 477.149 140.96C477.789 142.347 478.695 143.413 479.869 144.16C481.042 144.907 482.482 145.28 484.189 145.28C485.415 145.28 486.562 145.093 487.629 144.72C488.695 144.293 489.602 143.707 490.349 142.96C491.095 142.213 491.682 141.333 492.109 140.32C492.535 139.307 492.749 138.213 492.749 137.04V111.68H504.109V154H493.309L492.909 145.28L494.989 144.32C494.349 146.293 493.282 148.08 491.789 149.68C490.295 151.28 488.509 152.533 486.429 153.44C484.349 154.347 482.109 154.8 479.709 154.8ZM515.539 154V111.68H526.499L526.899 125.28L524.979 122.48C525.619 120.293 526.659 118.32 528.099 116.56C529.539 114.747 531.219 113.333 533.139 112.32C535.113 111.307 537.166 110.8 539.299 110.8C540.206 110.8 541.086 110.88 541.939 111.04C542.793 111.2 543.513 111.387 544.099 111.6L541.059 124.08C540.419 123.76 539.646 123.493 538.739 123.28C537.833 123.013 536.899 122.88 535.939 122.88C534.659 122.88 533.459 123.12 532.339 123.6C531.273 124.027 530.339 124.667 529.539 125.52C528.739 126.32 528.099 127.28 527.619 128.4C527.193 129.52 526.979 130.747 526.979 132.08V154H515.539Z" fill="#16151C"/>
</svg>
