<svg width="284" height="254" viewBox="0 0 284 254" fill="none" xmlns="http://www.w3.org/2000/svg">
<path d="M6.38672 154.21C6.38672 146.351 11.0041 139.261 18.4143 136.645C38.8584 129.426 83.7463 116.34 140.509 116.34C197.272 116.34 242.16 129.426 262.604 136.645C270.015 139.261 274.632 146.351 274.632 154.21C274.632 168.245 260.375 178.228 246.874 174.395C221.696 167.247 182.229 158.448 140.509 158.448C98.7902 158.448 59.3231 167.247 34.145 174.395C20.6436 178.228 6.38672 168.245 6.38672 154.21Z" fill="#78C3FA"/>
<rect y="233.197" width="268.133" height="41.6069" rx="20.8035" transform="rotate(-60 0 233.197)" fill="#52A6F3"/>
<rect width="265.611" height="41.6069" rx="20.8035" transform="matrix(-0.5 -0.866025 -0.866025 0.5 282.871 231.008)" fill="#A2A1A8"/>
<path d="M6.38672 224.465C6.38672 216.606 11.0041 209.516 18.4143 206.899C38.8584 199.68 83.7463 186.594 140.509 186.594C197.272 186.594 242.16 199.68 262.604 206.899C270.015 209.516 274.632 216.606 274.632 224.465C274.632 238.5 260.375 248.483 246.874 244.65C221.696 237.502 182.229 228.703 140.509 228.703C98.7902 228.703 59.3231 237.502 34.145 244.65C20.6436 248.483 6.38672 238.5 6.38672 224.465Z" fill="#1769B4"/>
<path d="M237.148 235.984L190.918 155.911C185.173 145.961 188.582 133.238 198.533 127.493C208.483 121.748 221.206 125.158 226.951 135.108L273.181 215.18C278.925 225.13 275.516 237.854 265.566 243.598C255.616 249.343 242.893 245.934 237.148 235.984Z" fill="#A2A1A8"/>
<path d="M123.112 18.9989L76.8821 99.0714C71.1374 109.022 74.5466 121.745 84.4967 127.489C94.4469 133.234 107.17 129.825 112.915 119.875L159.145 39.8023C164.889 29.8522 161.48 17.129 151.53 11.3843C141.58 5.63957 128.857 9.04874 123.112 18.9989Z" fill="#52A6F3"/>
<path d="M262.605 136.645C244.759 130.344 208.29 119.572 161.556 116.935C149.947 116.28 140.51 125.766 140.51 137.394C140.51 149.022 149.952 158.392 161.554 159.161C195.248 161.395 225.981 168.464 246.874 174.395C260.375 178.228 274.632 168.245 274.632 154.21C274.632 146.351 270.015 139.261 262.605 136.645Z" fill="#A2CFF9"/>
</svg>
